<?xml version="1.0" encoding="utf-8"?>
<!-- Generator: Adobe Illustrator 26.0.3, SVG Export Plug-In . SVG Version: 6.00 Build 0)  -->
<svg version="1.1" id="Layer_1" xmlns="http://www.w3.org/2000/svg" xmlns:xlink="http://www.w3.org/1999/xlink" x="0px" y="0px"
	 viewBox="0 0 196 196" style="enable-background:new 0 0 196 196;" xml:space="preserve">
<style type="text/css">
	.st0{fill:#C67D7E;}
	.st1{fill:#FAF4F2;}
</style>
<g id="Layer_3">
	<rect x="222.1" y="179.3" class="st0" width="16.2" height="16.2"/>
	<path class="st1" d="M226.2,189.4c-0.1-0.1-0.1-0.3-0.2-0.4c-0.1-0.6-0.1-1.2,0.1-1.7c0.1-0.2,0.2-0.4,0.4-0.5l1.3-1.4
		c0.1,0,0.1,0,0.1-0.1c0-0.1-0.1-0.1-0.1-0.2c-0.5-0.3-0.9-0.8-1-1.4c-0.2-0.6-0.1-1.3,0.2-1.9c0.3-0.7,0.9-1.2,1.7-1.4
		c1.3-0.2,2.6,0.6,2.9,1.9c0.2,0.7,0,1.4-0.5,1.9c-0.2,0.3-0.5,0.6-0.8,0.8l-2.8,2.9c-0.4,0.3-0.8,0.7-1.1,1.1
		C226.3,189.1,226.2,189.2,226.2,189.4z M229.3,180.4c-0.4,0-0.8,0.1-1.2,0.3c-1.1,0.6-1.6,2-1.2,3.2c0.2,0.5,0.6,0.9,1,1.3h0.2
		l2.3-2.3c0.2-0.2,0.4-0.5,0.5-0.8c0.2-0.3,0.2-0.7-0.1-1C230.5,180.7,229.9,180.4,229.3,180.4z"/>
	<path class="st1" d="M233.8,185.4c0.1,0.1,0.1,0.3,0.1,0.4c0.2,0.5,0.2,1.2,0,1.7c-0.1,0.2-0.2,0.4-0.4,0.5l-1.3,1.4l0,0
		c0.5,0.4,0.8,0.9,1,1.5c0.2,0.6,0.1,1.3-0.2,1.9c-0.3,0.7-1,1.2-1.7,1.4c-1.3,0.3-2.5-0.5-2.9-1.7c-0.2-0.7,0-1.4,0.5-1.9l0.8-0.8
		l2.8-2.9l1.1-1.1C233.8,185.7,233.8,185.6,233.8,185.4z M230.7,194.4c0.4,0,0.8-0.1,1.2-0.3c1.1-0.6,1.6-2,1.2-3.2
		c-0.2-0.5-0.6-0.9-1-1.3h-0.2l-2.3,2.3c-0.2,0.2-0.4,0.5-0.5,0.8c-0.2,0.3-0.2,0.7,0.1,1C229.6,194.2,230.2,194.4,230.7,194.4z"/>
	<path class="st1" d="M227.8,190.8c-0.6-0.2-1.1-0.6-1.4-1.2h0.3l0.3-0.2l1.5-1.4l2.4-2.4l0.2-0.2c0.1-0.2,0-0.4-0.2-0.4h-0.2
		c0-0.1,0-0.1,0.1-0.1l0,0h3c-0.3,0-0.5,0.2-0.7,0.4l-1,1l-4.2,4.4C227.8,190.7,227.8,190.7,227.8,190.8z"/>
	<rect x="233.8" y="184.9" class="st1" width="0.3" height="1.9"/>
</g>
<g id="Layer_3_00000092441168182284499390000011207062387017585545_">
	<rect x="0" y="0" class="st0" width="196" height="196"/>
	<path class="st1" d="M49.6,122.2c-1.2-1.2-1.2-3.6-2.4-4.8c-1.5-6.8-1-13.9,1.2-20.6c0.9-2.5,2.6-4.6,4.8-6L69,73.8
		c0.7,0,1.2-0.5,1.2-1.2c0-1.2-1.2-1.2-1.2-2.4c-6-4-10.3-10-12.1-16.9c-2.3-7.7-1.4-15.9,2.4-23c3.7-8.6,11.4-15,20.6-16.9
		c16-3,31.5,7.1,35.1,23c2.4,8.2,0.1,17-6,23c-2.6,3.8-5.9,7.1-9.7,9.7L65.3,104c-5,3.8-9.5,8.3-13.3,13.3
		C50.5,118.5,49.6,120.3,49.6,122.2z M87.1,13.3C82,13,77,14.3,72.6,16.9c-13.4,7.8-19.5,24-14.5,38.7c2.9,6,7,11.4,12.1,15.7h2.4
		l27.8-27.8c2.7-2.8,4.8-6.1,6-9.7c2.5-3.8,2-8.9-1.2-12.1C100.8,16.3,94.1,13.2,87.1,13.3z"/>
	<path class="st1" d="M141.6,73.8c1,1.4,1.4,3.1,1.2,4.8c2.4,6.6,2.4,13.9,0,20.6c-0.9,2.5-2.6,4.6-4.8,6l-15.7,16.9l0,0
		c5.7,4.7,10,11,12.1,18.1c2.3,7.7,1.4,15.9-2.4,23c-4,8.4-11.5,14.6-20.6,16.9c-15.2,3.2-30.4-5.7-35.1-20.6c-2.4-8.2-0.1-17,6-23
		L92,127L125.8,92l13.3-13.3C140.7,77.5,141.6,75.7,141.6,73.8z M104,182.7c5.1,0.3,10.2-1,14.5-3.6c13.4-7.8,19.5-24,14.5-38.7
		c-2.9-6-7-11.4-12.1-15.7h-2.4l-27.8,27.8c-2.7,2.8-4.8,6.1-6,9.7c-2.5,3.8-2,8.9,1.2,12.1C90.3,179.7,97,182.8,104,182.7z"/>
	<path class="st1" d="M69,139.1c-7.4-2.4-13.5-7.6-16.9-14.5h3.6l3.6-2.4l18.1-16.9l29-29l2.4-2.4c1.2-2.4,0-4.8-2.4-4.8H104
		c0-0.7,0.5-1.2,1.2-1.2l0,0h36.3c-3.4,0.4-6.5,2.1-8.5,4.8L121,84.7l-50.8,53.2C69,137.9,69,137.9,69,139.1z"/>
	<rect x="141.6" y="67.8" class="st1" width="3.6" height="23.4"/>
</g>
</svg>
