<svg id="Layer_1" data-name="Layer 1" xmlns="http://www.w3.org/2000/svg" width="204" height="204" viewBox="0 0 204 204"><defs><style>.cls-1{fill:#b996c6;}.cls-2{fill:#210a41;}</style></defs><rect class="cls-1" width="204" height="204"/><rect class="cls-2" x="10.3" y="10.3" width="183.3" height="183.32"/><path class="cls-1" d="M92.5,120.3H63.2l-7.5,19.6H40.6L71.3,62.6h13L115,139.9H100ZM77.8,81.2C75,89.3,72.6,96,70.4,101.4l-2.6,7H87.9l-2.6-6.9C83.2,96,80.8,89.3,78,81.2Zm75.3,49.2a39.8,39.8,0,0,0,8.3-.9,56.6,56.6,0,0,0,8.8-2.2v10.8a36.9,36.9,0,0,1-8.1,2.2,61.2,61.2,0,0,1-11.4,1.1,38.1,38.1,0,0,1-11.3-1.6,24.9,24.9,0,0,1-9.4-4.9,25.6,25.6,0,0,1-6.3-8.9,32.4,32.4,0,0,1-2.4-13.2,36.3,36.3,0,0,1,2.3-13.3,28.2,28.2,0,0,1,5.8-9.5,26.7,26.7,0,0,1,8.5-5.6,27.9,27.9,0,0,1,19.7-.2,19,19,0,0,1,7.8,5,24.8,24.8,0,0,1,5.1,8.9,41.9,41.9,0,0,1,1.8,12.9c0,1.9-.1,3.5-.2,4.9H135.4a16.9,16.9,0,0,0,1.7,6.7,13.8,13.8,0,0,0,3.8,4.5,14.7,14.7,0,0,0,5.4,2.4,25.4,25.4,0,0,0,6.8.9Zm-5.5-37.2a11.1,11.1,0,0,0-4.6.9,12.8,12.8,0,0,0-3.5,2.6,11.8,11.8,0,0,0-2.3,3.9,17.1,17.1,0,0,0-1.2,4.7h22a17.3,17.3,0,0,0-.6-4.7,13.1,13.1,0,0,0-2-3.9,10.2,10.2,0,0,0-3.2-2.6,10.8,10.8,0,0,0-4.6-.9Z"/></svg>