<svg xmlns="http://www.w3.org/2000/svg" id="Layer_1" width="131.4" height="131.4" viewBox="0 0 131.4 131.4"><defs><style>.cls-1{fill:#c67d7e}.cls-2{fill:#fff}</style></defs><circle cx="65.7" cy="65.7" r="65.7" class="cls-1"/><path d="M66.2 117a51.1 51.1 0 1 1 51-50.8 51.1 51.1 0 0 1-51 50.8zm15-81.9c-3.7 0-7.3-.1-10.8 0-7.1.2-11.9 4.9-12.3 11.9-.1 2.3 0 4.6 0 7.1l-6.2.4v12.8h6.3V99H71V67.1h9.3c.4-4.3.8-8.4 1.2-12.9H71.2c.2-2.6-.2-6.1.9-6.7s5.8-1.5 9.1-2.2z" class="cls-1"/><path d="M81.2 35.1v10.2c-3.3.7-6.6.8-9.1 2.2s-.7 4.1-.9 6.7h10.3c-.4 4.5-.8 8.6-1.2 12.9H71V99H58.2V67.3h-6.3V54.5l6.2-.4c0-2.5-.1-4.8 0-7.1.4-7 5.2-11.7 12.3-11.9 3.5-.1 7.1 0 10.8 0z" class="cls-2"/></svg>