<svg id="Layer_1" data-name="Layer 1" xmlns="http://www.w3.org/2000/svg" width="131.4" height="131.4" viewBox="0 0 131.4 131.4"><defs><style>.cls-1{fill:#c67d7e;}.cls-2{fill:#fff;}</style></defs><circle class="cls-1" cx="65.7" cy="65.7" r="65.7"/><path class="cls-1" d="M66.2,117a51.1,51.1,0,1,1,51-50.8A51.1,51.1,0,0,1,66.2,117Zm15-81.9c-3.7,0-7.3-.1-10.8,0C63.3,35.3,58.5,40,58.1,47c-.1,2.3,0,4.6,0,7.1l-6.2.4V67.3h6.3V99H71V67.1h9.3c.4-4.3.8-8.4,1.2-12.9H71.2c.2-2.6-.2-6.1.9-6.7s5.8-1.5,9.1-2.2Z"/><path class="cls-2" d="M81.2,35.1V45.3c-3.3.7-6.6.8-9.1,2.2s-.7,4.1-.9,6.7H81.5c-.4,4.5-.8,8.6-1.2,12.9H71V99H58.2V67.3H51.9V54.5l6.2-.4c0-2.5-.1-4.8,0-7.1.4-7,5.2-11.7,12.3-11.9C73.9,35,77.5,35.1,81.2,35.1Z"/></svg>