<svg xmlns="http://www.w3.org/2000/svg" id="Layer_1" viewBox="0 0 196 196" width="196" height="196"><style>.st0{fill:#c67d7e}.st1{fill:#faf4f2}</style><g id="Layer_3"><path d="M222.1 179.3h16.2v16.2h-16.2z" class="st0"/><path d="M226.2 189.4c-.1-.1-.1-.3-.2-.4-.1-.6-.1-1.2.1-1.7.1-.2.2-.4.4-.5l1.3-1.4c.1 0 .1 0 .1-.1s-.1-.1-.1-.2c-.5-.3-.9-.8-1-1.4-.2-.6-.1-1.3.2-1.9.3-.7.9-1.2 1.7-1.4 1.3-.2 2.6.6 2.9 1.9.2.7 0 1.4-.5 1.9-.2.3-.5.6-.8.8l-2.8 2.9c-.4.3-.8.7-1.1 1.1-.1.1-.2.2-.2.4zm3.1-9c-.4 0-.8.1-1.2.3-1.1.6-1.6 2-1.2 3.2.2.5.6.9 1 1.3h.2l2.3-2.3c.2-.2.4-.5.5-.8.2-.3.2-.7-.1-1-.3-.4-.9-.7-1.5-.7zm4.5 5c.1.1.1.3.1.4.2.5.2 1.2 0 1.7-.1.2-.2.4-.4.5l-1.3 1.4c.5.4.8.9 1 1.5.2.6.1 1.3-.2 1.9-.3.7-1 1.2-1.7 1.4-1.3.3-2.5-.5-2.9-1.7-.2-.7 0-1.4.5-1.9l.8-.8 2.8-2.9 1.1-1.1c.2-.1.2-.2.2-.4zm-3.1 9c.4 0 .8-.1 1.2-.3 1.1-.6 1.6-2 1.2-3.2-.2-.5-.6-.9-1-1.3h-.2l-2.3 2.3c-.2.2-.4.5-.5.8-.2.3-.2.7.1 1 .4.5 1 .7 1.5.7zm-2.9-3.6c-.6-.2-1.1-.6-1.4-1.2h.3l.3-.2 1.5-1.4 2.4-2.4.2-.2c.1-.2 0-.4-.2-.4h-.2c0-.1 0-.1.1-.1h3c-.3 0-.5.2-.7.4l-1 1-4.2 4.4c-.1 0-.1 0-.1.1z" class="st1"/><path d="M233.8 184.9h.3v1.9h-.3z" class="st1"/></g><g id="Layer_3_00000092441168182284499390000011207062387017585545_"><path d="M0 0h196v196H0z" class="st0"/><path d="M49.6 122.2c-1.2-1.2-1.2-3.6-2.4-4.8-1.5-6.8-1-13.9 1.2-20.6.9-2.5 2.6-4.6 4.8-6l15.8-17c.7 0 1.2-.5 1.2-1.2 0-1.2-1.2-1.2-1.2-2.4-6-4-10.3-10-12.1-16.9-2.3-7.7-1.4-15.9 2.4-23 3.7-8.6 11.4-15 20.6-16.9 16-3 31.5 7.1 35.1 23 2.4 8.2.1 17-6 23-2.6 3.8-5.9 7.1-9.7 9.7l-34 34.9c-5 3.8-9.5 8.3-13.3 13.3-1.5 1.2-2.4 3-2.4 4.9zM87.1 13.3c-5.1-.3-10.1 1-14.5 3.6-13.4 7.8-19.5 24-14.5 38.7 2.9 6 7 11.4 12.1 15.7h2.4l27.8-27.8c2.7-2.8 4.8-6.1 6-9.7 2.5-3.8 2-8.9-1.2-12.1-4.4-5.4-11.1-8.5-18.1-8.4zm54.5 60.5c1 1.4 1.4 3.1 1.2 4.8 2.4 6.6 2.4 13.9 0 20.6-.9 2.5-2.6 4.6-4.8 6l-15.7 16.9c5.7 4.7 10 11 12.1 18.1 2.3 7.7 1.4 15.9-2.4 23-4 8.4-11.5 14.6-20.6 16.9-15.2 3.2-30.4-5.7-35.1-20.6-2.4-8.2-.1-17 6-23L92 127l33.8-35 13.3-13.3c1.6-1.2 2.5-3 2.5-4.9zM104 182.7c5.1.3 10.2-1 14.5-3.6 13.4-7.8 19.5-24 14.5-38.7-2.9-6-7-11.4-12.1-15.7h-2.4l-27.8 27.8c-2.7 2.8-4.8 6.1-6 9.7-2.5 3.8-2 8.9 1.2 12.1 4.4 5.4 11.1 8.5 18.1 8.4zm-35-43.6c-7.4-2.4-13.5-7.6-16.9-14.5h3.6l3.6-2.4 18.1-16.9 29-29 2.4-2.4c1.2-2.4 0-4.8-2.4-4.8H104c0-.7.5-1.2 1.2-1.2h36.3c-3.4.4-6.5 2.1-8.5 4.8l-12 12-50.8 53.2c-1.2 0-1.2 0-1.2 1.2z" class="st1"/><path d="M141.6 67.8h3.6v23.4h-3.6z" class="st1"/></g></svg>