<svg xmlns="http://www.w3.org/2000/svg" width="16" height="16" viewBox="0 0 16 16"><defs><style>.cls-1{fill:#c67d7e}.cls-2{fill:#faf4f2}</style></defs><g id="Layer_3"><path d="M-.1-.2h16.2V16H-.1z" class="cls-1"/><path d="M4 9.9c-.1-.1-.1-.3-.2-.4a3.2 3.2 0 0 1 .1-1.7 1 1 0 0 1 .4-.5l1.3-1.4a.1.1 0 0 0 .1-.1c0-.1-.1-.1-.1-.2a2.4 2.4 0 0 1-1-1.4 2.5 2.5 0 0 1 .2-1.9A2.4 2.4 0 0 1 6.5.9a2.5 2.5 0 0 1 2.9 1.9 1.9 1.9 0 0 1-.5 1.9 3 3 0 0 1-.8.8L5.3 8.4a5.7 5.7 0 0 0-1.1 1.1.5.5 0 0 0-.2.4zm3.1-9a2.1 2.1 0 0 0-1.2.3 2.7 2.7 0 0 0-1.2 3.2 4.1 4.1 0 0 0 1 1.3h.2l2.3-2.3a2.2 2.2 0 0 0 .5-.8.8.8 0 0 0-.1-1A1.9 1.9 0 0 0 7.1.9zm4.5 5a.6.6 0 0 1 .1.4 2.5 2.5 0 0 1 0 1.7 1 1 0 0 1-.4.5L10 9.9a3.1 3.1 0 0 1 1 1.5 2.5 2.5 0 0 1-.2 1.9 2.6 2.6 0 0 1-1.7 1.4A2.5 2.5 0 0 1 6.2 13a1.9 1.9 0 0 1 .5-1.9l.8-.8 2.8-2.9 1.1-1.1a.5.5 0 0 0 .2-.4zm-3.1 9a2.1 2.1 0 0 0 1.2-.3 2.7 2.7 0 0 0 1.2-3.2 4.1 4.1 0 0 0-1-1.3h-.2l-2.3 2.3a2.2 2.2 0 0 0-.5.8.8.8 0 0 0 .1 1 1.9 1.9 0 0 0 1.5.7zm-2.9-3.6a2.4 2.4 0 0 1-1.4-1.2h.3l.3-.2 1.5-1.4 2.4-2.4.2-.2c.1-.2 0-.4-.2-.4h-.2a.1.1 0 0 1 .1-.1h3a1 1 0 0 0-.7.4l-1 1-4.2 4.4c-.1 0-.1 0-.1.1z" class="cls-2"/><path d="M11.6 5.4h.3v1.93h-.3z" class="cls-2"/></g></svg>