<svg xmlns="http://www.w3.org/2000/svg" width="16" height="16" viewBox="0 0 16 16"><defs><style>.cls-1{fill:#c67d7e;}.cls-2{fill:#faf4f2;}</style></defs><g id="Layer_3" data-name="Layer 3"><rect class="cls-1" x="-0.1" y="-0.2" width="16.2" height="16.2"/><path class="cls-2" d="M4,9.9c-.1-.1-.1-.3-.2-.4a3.2,3.2,0,0,1,.1-1.7,1,1,0,0,1,.4-.5L5.6,5.9a.1.1,0,0,0,.1-.1c0-.1-.1-.1-.1-.2a2.4,2.4,0,0,1-1-1.4,2.5,2.5,0,0,1,.2-1.9A2.4,2.4,0,0,1,6.5.9,2.5,2.5,0,0,1,9.4,2.8a1.9,1.9,0,0,1-.5,1.9,3,3,0,0,1-.8.8L5.3,8.4A5.7,5.7,0,0,0,4.2,9.5a.5.5,0,0,0-.2.4ZM7.1.9a2.1,2.1,0,0,0-1.2.3A2.7,2.7,0,0,0,4.7,4.4a4.1,4.1,0,0,0,1,1.3h.2L8.2,3.4a2.2,2.2,0,0,0,.5-.8.8.8,0,0,0-.1-1A1.9,1.9,0,0,0,7.1.9Z"/><path class="cls-2" d="M11.6,5.9a.6.6,0,0,1,.1.4,2.5,2.5,0,0,1,0,1.7,1,1,0,0,1-.4.5L10,9.9h0a3.1,3.1,0,0,1,1,1.5,2.5,2.5,0,0,1-.2,1.9,2.6,2.6,0,0,1-1.7,1.4A2.5,2.5,0,0,1,6.2,13a1.9,1.9,0,0,1,.5-1.9l.8-.8,2.8-2.9,1.1-1.1a.5.5,0,0,0,.2-.4Zm-3.1,9a2.1,2.1,0,0,0,1.2-.3,2.7,2.7,0,0,0,1.2-3.2,4.1,4.1,0,0,0-1-1.3H9.7L7.4,12.4a2.2,2.2,0,0,0-.5.8.8.8,0,0,0,.1,1A1.9,1.9,0,0,0,8.5,14.9Z"/><path class="cls-2" d="M5.6,11.3a2.4,2.4,0,0,1-1.4-1.2h.3l.3-.2L6.3,8.5,8.7,6.1l.2-.2c.1-.2,0-.4-.2-.4H8.5a.1.1,0,0,1,.1-.1h3a1,1,0,0,0-.7.4l-1,1L5.7,11.2C5.6,11.2,5.6,11.2,5.6,11.3Z"/><rect class="cls-2" x="11.6" y="5.4" width="0.3" height="1.93"/></g></svg>