<svg id="Layer_1" data-name="Layer 1" xmlns="http://www.w3.org/2000/svg" width="204" height="204" viewBox="0 0 204 204"><defs><style>.cls-1{fill:#ee4892;}.cls-2{fill:#27100c;}.cls-3{fill:#ee4692;}</style></defs><rect class="cls-1" width="204" height="204"/><rect class="cls-2" x="10.3" y="10.3" width="183.3" height="183.32"/><path class="cls-3" d="M61.3,143.1V65.8H75.5v77.3Zm55-9.4a16,16,0,0,0,3.9-.5l3.4-1.4a24.3,24.3,0,0,0,2.9-2,13.4,13.4,0,0,0,2.1-2V101.2a24.4,24.4,0,0,0-5.4-3.3,17,17,0,0,0-6.4-1.3,12.9,12.9,0,0,0-4.5.9,12.6,12.6,0,0,0-4.3,2.9,19.6,19.6,0,0,0-3.2,5.8,31.1,31.1,0,0,0-1.3,9.5q0,8.4,3.3,13.2a11.3,11.3,0,0,0,9.5,4.8Zm-27-17.5a41,41,0,0,1,2-13.1,28.3,28.3,0,0,1,5.6-9.6,22.5,22.5,0,0,1,8-5.8,23.3,23.3,0,0,1,9.4-2,29.9,29.9,0,0,1,4.3.4l3.8,1.1a25.3,25.3,0,0,1,3.3,1.6l2.9,1.8h.1c0-.8,0-1.9-.1-3.3V59.5h13.8v67c0,3.7,0,6.9.1,9.5s.1,5.1.2,7.1H130.3l-.6-5.9h-.2a26,26,0,0,1-2.9,2.8,24.5,24.5,0,0,1-3.8,2.4,21.8,21.8,0,0,1-4.5,1.6,31,31,0,0,1-5.4.5,21.4,21.4,0,0,1-8.7-1.6,19.7,19.7,0,0,1-7.6-5,25.2,25.2,0,0,1-5.3-8.8,38,38,0,0,1-2-12.9Z"/></svg>