<svg id="Layer_1" data-name="Layer 1" xmlns="http://www.w3.org/2000/svg" width="131.4" height="131.4" viewBox="0 0 131.4 131.4"><defs><style>.cls-1{fill:#c67d7e;}.cls-2{fill:#fff;}</style></defs><circle class="cls-1" cx="65.7" cy="65.7" r="65.7"/><path class="cls-1" d="M65.5,116.8a51.1,51.1,0,0,1,.2-102.2c28.2,0,51.3,23.2,51.1,51.2A51.1,51.1,0,0,1,65.5,116.8ZM66,38.5H50.8c-7.5.1-12.2,4.7-12.2,12-.1,10.2-.1,20.3,0,30.5,0,7,4.5,11.8,11.6,12,10.3.2,20.7.2,31.1,0,7-.2,11.5-5,11.5-12.1.1-10.1.1-20.3,0-30.4,0-7.2-4.7-11.9-11.9-12Z"/><path class="cls-2" d="M66,38.5H80.9c7.2.1,11.9,4.8,11.9,12,.1,10.1.1,20.3,0,30.4,0,7.1-4.5,11.9-11.5,12.1-10.4.2-20.8.2-31.1,0-7.1-.2-11.6-5-11.6-12-.1-10.2-.1-20.3,0-30.5,0-7.3,4.7-11.9,12.2-12ZM43.3,65.7V80.6c.1,5.1,2.5,7.7,7.5,7.7H80.6c4.9,0,7.4-2.5,7.5-7.4V50.5c-.1-4.8-2.7-7.4-7.5-7.4H50.8c-4.8,0-7.4,2.6-7.5,7.4Z"/><path class="cls-1" d="M43.3,65.7V50.5c.1-4.8,2.7-7.4,7.5-7.4H80.6c4.8,0,7.4,2.6,7.5,7.4V80.9c-.1,4.9-2.6,7.4-7.5,7.4H50.8c-5,0-7.4-2.6-7.5-7.7Zm8.3-.1A14.1,14.1,0,1,0,65.8,51.5,14.2,14.2,0,0,0,51.6,65.6Z"/><path class="cls-2" d="M51.6,65.6a14.1,14.1,0,1,1,28.1.4,14.1,14.1,0,1,1-28.1-.4Zm14-9.3a9.4,9.4,0,0,0-9.4,9.4,9.5,9.5,0,1,0,19-.1A9.5,9.5,0,0,0,65.6,56.3Z"/><path class="cls-1" d="M65.6,56.3a9.5,9.5,0,0,1,9.6,9.3,9.5,9.5,0,1,1-19,.1A9.4,9.4,0,0,1,65.6,56.3Z"/></svg>