<svg xmlns="http://www.w3.org/2000/svg" id="Layer_1" width="131.4" height="131.4" viewBox="0 0 131.4 131.4"><defs><style>.cls-1{fill:#c67d7e}.cls-2{fill:#fff}</style></defs><circle cx="65.7" cy="65.7" r="65.7" class="cls-1"/><path d="M65.5 116.8a51.1 51.1 0 0 1 .2-102.2c28.2 0 51.3 23.2 51.1 51.2a51.1 51.1 0 0 1-51.3 51zm.5-78.3H50.8c-7.5.1-12.2 4.7-12.2 12-.1 10.2-.1 20.3 0 30.5 0 7 4.5 11.8 11.6 12 10.3.2 20.7.2 31.1 0 7-.2 11.5-5 11.5-12.1.1-10.1.1-20.3 0-30.4 0-7.2-4.7-11.9-11.9-12z" class="cls-1"/><path d="M66 38.5h14.9c7.2.1 11.9 4.8 11.9 12 .1 10.1.1 20.3 0 30.4 0 7.1-4.5 11.9-11.5 12.1-10.4.2-20.8.2-31.1 0-7.1-.2-11.6-5-11.6-12-.1-10.2-.1-20.3 0-30.5 0-7.3 4.7-11.9 12.2-12zM43.3 65.7v14.9c.1 5.1 2.5 7.7 7.5 7.7h29.8c4.9 0 7.4-2.5 7.5-7.4V50.5c-.1-4.8-2.7-7.4-7.5-7.4H50.8c-4.8 0-7.4 2.6-7.5 7.4z" class="cls-2"/><path d="M43.3 65.7V50.5c.1-4.8 2.7-7.4 7.5-7.4h29.8c4.8 0 7.4 2.6 7.5 7.4v30.4c-.1 4.9-2.6 7.4-7.5 7.4H50.8c-5 0-7.4-2.6-7.5-7.7zm8.3-.1a14.1 14.1 0 1 0 14.2-14.1 14.2 14.2 0 0 0-14.2 14.1z" class="cls-1"/><path d="M51.6 65.6a14.1 14.1 0 1 1 28.1.4 14.1 14.1 0 1 1-28.1-.4zm14-9.3a9.4 9.4 0 0 0-9.4 9.4 9.5 9.5 0 1 0 19-.1 9.5 9.5 0 0 0-9.6-9.3z" class="cls-2"/><path d="M65.6 56.3a9.5 9.5 0 0 1 9.6 9.3 9.5 9.5 0 1 1-19 .1 9.4 9.4 0 0 1 9.4-9.4z" class="cls-1"/></svg>