<svg id="Layer_1" data-name="Layer 1" xmlns="http://www.w3.org/2000/svg" width="131.4" height="131.4" viewBox="0 0 131.4 131.4"><defs><style>.cls-1{fill:#c67d7e;}.cls-2{fill:#fff;}</style></defs><circle class="cls-1" cx="65.7" cy="66.8" r="65.7"/><path class="cls-2" d="M69.5,56.7a14.8,14.8,0,0,1,8.2-6.2,16.8,16.8,0,0,1,11.7.7c4.2,1.9,6.5,5.3,7.6,9.7a24.5,24.5,0,0,1,.6,6v26c0,.5-.1.6-.6.6H85.2c-.6,0-.6,0-.6-.7V70.9a12.5,12.5,0,0,0-.9-5.1,6.1,6.1,0,0,0-6.1-4.1,9.7,9.7,0,0,0-2.4.2A7.3,7.3,0,0,0,70,67.3a14,14,0,0,0-.5,4.1c.1,7.2,0,14.3.1,21.5,0,.5-.2.6-.7.6H57.5c-.4,0-.5-.1-.5-.6V51.6c0-.4.1-.5.5-.5H69c.4,0,.6.1.6.5S69.5,54.9,69.5,56.7Z"/><path class="cls-2" d="M48.7,72.3c0,6.9-.1,13.7,0,20.6,0,.4-.1.6-.6.6H36.2c-.5,0-.6-.2-.6-.6V51.7c0-.5.1-.6.6-.6H48.1c.5,0,.6.1.6.6C48.6,58.6,48.7,65.4,48.7,72.3Z"/><path class="cls-2" d="M42.2,29.9a7.9,7.9,0,1,1-7.8,7.4A7.7,7.7,0,0,1,42.2,29.9Z"/></svg>