<svg xmlns="http://www.w3.org/2000/svg" id="Layer_1" width="256" height="256" viewBox="0 0 256 256"><defs><style>.cls-1{font-size:35.62px;font-family:Montserrat-Regular,Montserrat}.cls-1,.cls-3{fill:#574740}.cls-2{letter-spacing:.06em}</style></defs><text class="cls-1" transform="matrix(.94 0 0 1 81.3 84.7)"><tspan x="9.3" y="0" class="cls-2">DESIGNS</tspan></text><path d="M3.5 163c-.7-2.4-1.5-4.8-2-7.2-1.8-8.6-2.3-17.2 1.1-25.5a25.5 25.5 0 0 1 5.2-8.1c6.8-7.2 13.9-14 20.9-21a19 19 0 0 1 2-1.8c-1.1-1-1.9-1.8-2.8-2.5a41 41 0 0 1-14.7-22.8 42.3 42.3 0 0 1 3-29.3c5.4-11.2 14.1-18.1 25.5-20.9 20.1-4.9 40 8.5 45.1 28.3 3 11.6.7 21.6-7 30.2-4 4.5-8.3 8.7-12.6 13l-43.8 43.2c-5.7 5.6-11.2 11.4-16.7 17.1-1.8 1.9-3.2 4.2-2.7 7.2zM51.1 23.7a37 37 0 0 0-18.4 4.7C16.3 37.7 8.8 58.5 15.1 77.1c3 8.7 8.6 15.1 15.4 20.6 1 .7 1.5.3 2.2-.4 12-11.8 24.1-23.5 35.9-35.5a57.2 57.2 0 0 0 8.2-11.3c3.3-5.8 2.6-11-1.7-16-6.7-7.5-15.4-10.3-24-10.8zm70.3 76.5c.6 2.4 1.4 4.8 1.9 7.2 1.9 8.6 2.4 17.2-1 25.5a25.5 25.5 0 0 1-5.2 8.1c-6.8 7.2-13.9 14.1-20.8 21l-2.1 1.9 2.8 2.4a41.7 41.7 0 0 1 14.8 22.8 43.5 43.5 0 0 1-3 29.3c-5.4 11.2-14.1 18.2-25.5 21-20.1 4.9-40-8.5-45.1-28.3-3.1-11.5-.8-21.6 6.9-30.2 4.1-4.5 8.4-8.7 12.7-13 14.5-14.4 29.2-28.8 43.7-43.3 5.6-5.6 11.1-11.3 16.6-17.1 1.9-1.9 3.2-4.2 2.8-7.2zM73.9 239.6a36.8 36.8 0 0 0 18.4-4.8c16.4-9.3 23.8-30.1 17.5-48.6-2.9-8.8-8.6-15.2-15.4-20.6-.9-.8-1.5-.4-2.2.3-11.9 11.9-24 23.6-35.8 35.6a57.2 57.2 0 0 0-8.2 11.3c-3.3 5.8-2.6 11.1 1.7 16 6.8 7.5 15.4 10.3 24 10.8zM28 184.3a49.6 49.6 0 0 1-21.2-18.4c1.5.3 3.3 1.2 4.9.9a10.4 10.4 0 0 0 4.6-2.7c8-7.5 15.9-15 23.7-22.7 12.4-12.4 24.6-25 36.9-37.5a21.8 21.8 0 0 0 2.6-3.4c1.8-3 .7-5.1-2.5-5.4-.8-.1-1.7.2-2.4-.1a6.6 6.6 0 0 1-1.6-1.7c.5-.4 1.1-1 1.6-1h45.8a4.9 4.9 0 0 1 2 .5 1.5 1.5 0 0 1 .1 1.3c-.4.5-1.1 1.1-1.5 1-4.8-1-7.6 2.1-10.6 5.2-5.2 5.5-10.6 10.8-15.9 16.1L29.7 182z" class="cls-3"/><path d="M120.9 92.3h4v29.76h-4z" class="cls-3"/></svg>