<svg id="Layer_1" data-name="Layer 1" xmlns="http://www.w3.org/2000/svg" width="64" height="64" viewBox="0 0 64 64"><defs><style>.cls-1{font-size:8.86px;font-family:Montserrat-Regular, Montserrat;}.cls-1,.cls-3{fill:#574740;}.cls-2{letter-spacing:0.06em;}</style></defs><text class="cls-1" transform="translate(20.2 19.7) scale(0.94 1)"> <tspan class="cls-2" x="2.3" y="0">DESIGNS</tspan></text><path class="cls-3" d="M.8,39.1c-.1-.6-.3-1.2-.4-1.8A10.4,10.4,0,0,1,.6,31a6.9,6.9,0,0,1,1.3-2c1.7-1.8,3.5-3.5,5.2-5.2l.5-.5-.7-.6A9.9,9.9,0,0,1,3.3,17,10.9,10.9,0,0,1,4,9.7a9.5,9.5,0,0,1,6.4-5.2c5-1.2,9.9,2.2,11.2,7.1a7.8,7.8,0,0,1-1.8,7.5c-1,1.1-2,2.2-3.1,3.2L5.8,33.1,1.7,37.3A2.1,2.1,0,0,0,1,39.1ZM12.7,4.5A8.8,8.8,0,0,0,8.1,5.7,10.2,10.2,0,0,0,3.7,17.8a12.3,12.3,0,0,0,3.9,5.1c.2.2.3.1.5-.1,3-2.9,6-5.8,8.9-8.8a14.6,14.6,0,0,0,2.1-2.8,3.3,3.3,0,0,0-.4-4A8.3,8.3,0,0,0,12.7,4.5Z"/><path class="cls-3" d="M30.2,23.5a12.1,12.1,0,0,0,.5,1.8,11.2,11.2,0,0,1-.3,6.3,7.4,7.4,0,0,1-1.3,2.1c-1.7,1.8-3.4,3.5-5.2,5.2l-.5.5.7.6a10.3,10.3,0,0,1,3.7,5.6,10.8,10.8,0,0,1-.8,7.3,9.1,9.1,0,0,1-6.3,5.2c-5,1.3-9.9-2.1-11.2-7a7.5,7.5,0,0,1,1.7-7.5l3.1-3.2L25.2,29.6l4.2-4.3a1.8,1.8,0,0,0,.6-1.8ZM18.4,58.2A9.4,9.4,0,0,0,22.9,57a10.1,10.1,0,0,0,4.4-12.1,10.9,10.9,0,0,0-3.8-5.1c-.3-.2-.4-.1-.6.1-3,2.9-6,5.8-8.9,8.8a11,11,0,0,0-2,2.8,3,3,0,0,0,.4,4A8.2,8.2,0,0,0,18.4,58.2Z"/><path class="cls-3" d="M6.9,44.4a12.6,12.6,0,0,1-5.2-4.5l1.2.2A2.6,2.6,0,0,0,4,39.4l5.9-5.6,9.2-9.4.7-.8a.9.9,0,0,0-.7-1.4c-.2,0-.4.1-.6,0s-.2-.3-.4-.4l.4-.3H29.9l.5.2c.1,0,.1.2,0,.3s-.2.2-.3.2-1.9.5-2.7,1.3l-3.9,4C18.1,33,12.7,38.4,7.4,43.9,7.2,44,7.1,44.2,6.9,44.4Z"/><rect class="cls-3" x="30.1" y="21.6" width="1" height="7.4"/></svg>