<svg id="Layer_1" data-name="Layer 1" xmlns="http://www.w3.org/2000/svg" width="204" height="204" viewBox="0 0 204 204"><defs><style>.cls-1{fill:#24c3f3;}.cls-2{fill:#081e25;}.cls-3{fill:#32c5f4;}</style></defs><rect class="cls-1" width="204" height="204"/><rect class="cls-2" x="10.3" y="10.3" width="183.3" height="183.32"/><path class="cls-3" d="M69.6,110H65.8l-3.4-.2v30.2H48.1V62.7H70.5a94.9,94.9,0,0,1,9.8.4,38.2,38.2,0,0,1,7.5,1.5A24.4,24.4,0,0,1,100,72.4c2.8,3.5,4.3,8,4.3,13.5a22,22,0,0,1-2.3,10,22.4,22.4,0,0,1-6.8,7.6,33,33,0,0,1-10.9,4.8A55,55,0,0,1,69.6,110ZM62.4,97.8l3,.3h4a37.8,37.8,0,0,0,9.5-.9,15.5,15.5,0,0,0,6.2-2.6,8.4,8.4,0,0,0,3.4-3.9,11.2,11.2,0,0,0,1.1-5.1,10.8,10.8,0,0,0-1.6-6,9.9,9.9,0,0,0-5.4-3.8,20,20,0,0,0-5-1c-2-.2-4.4-.3-7.3-.3H62.4Zm80,25.9a4.4,4.4,0,0,0-1.1-3,9.2,9.2,0,0,0-2.6-1.9,29.3,29.3,0,0,0-3.9-1.4l-4.5-1.1a49.2,49.2,0,0,1-5.8-1.9,16.9,16.9,0,0,1-4.9-2.8,12.7,12.7,0,0,1-3.4-4.4,15.2,15.2,0,0,1-1.2-6.4,18.3,18.3,0,0,1,1.7-8.1,17,17,0,0,1,4.5-5.7,21.2,21.2,0,0,1,6.7-3.4,29.7,29.7,0,0,1,8-1.1,59.5,59.5,0,0,1,9.7.8,52.5,52.5,0,0,1,8.1,2.2V96.6l-4-1.1-4.3-1-4.3-.6a28.2,28.2,0,0,0-4-.2,17.1,17.1,0,0,0-4.2.4,7.5,7.5,0,0,0-2.7,1.3,4.9,4.9,0,0,0-1.5,1.7,5.4,5.4,0,0,0-.4,2.2,4.8,4.8,0,0,0,1,3.1,6.6,6.6,0,0,0,2.8,1.9l3.7,1.3,3.8.9a55.4,55.4,0,0,1,5.8,1.7,16.3,16.3,0,0,1,5.2,2.8,12,12,0,0,1,3.8,4.5,15.1,15.1,0,0,1,1.5,7.2,17.7,17.7,0,0,1-1.8,8.2,16.8,16.8,0,0,1-5,5.9,22.6,22.6,0,0,1-7.7,3.4,38.4,38.4,0,0,1-9.9,1.2,54.4,54.4,0,0,1-9.5-.8,33.2,33.2,0,0,1-7.1-2.2v-11a37.4,37.4,0,0,0,8.4,2.2,45.3,45.3,0,0,0,7.1.6,33.8,33.8,0,0,0,4.7-.3,13.1,13.1,0,0,0,3.8-1.2,6.5,6.5,0,0,0,2.5-2.1,4.8,4.8,0,0,0,1-2.9Z"/></svg>